<svg id="Lager_1" data-name="Lager 1" xmlns="http://www.w3.org/2000/svg" viewBox="0 0 1727.67 1117.01"><title>Gradient_wave_filil</title>
<style type="text/css">
    path{fill:url('#MyGradient')}
</style>
<defs>
    <linearGradient id="MyGradient" x2="1" y2="2">
    <stop offset="0%" stop-color="#ECE08C" />
    <stop offset="100%" stop-color="#E2C0D8" />
  </linearGradient>
</defs>
<path d="M1157.69,505.7c0-.54.1-1.75.1-1.75v-1.06c0-.09,0-.18,0-.26s0-.72,0-.72,0-.09,0-.14a10.86,10.86,0,0,1,.45-2.33s0-.08,0-.13v-.19a5.89,5.89,0,0,1,.23-1.91c0-.12,0-.23,0-.35a5.7,5.7,0,0,1-.06-.58v-.2a4.84,4.84,0,0,1,.41-1.93c.08-6.3.68-12.49.77-14,.49-7.78-1.28-15.53-.39-23.37.16-1.37-.27-4.12-2-4.08-2,0-1.57,2.56-1.64,4.11-1,22.94-2.25,45.87-2.84,68.82-.47,18.45-1.37,36.87-2.23,55.31a12.53,12.53,0,0,1-.38,1.88,13.65,13.65,0,0,1-.39-1.88c-.65-10-1.53-19.9-1.86-29.86-1.12-33.78-2.05-67.56-3-101.34-.44-15.31-.72-30.62-1.19-45.93-.28-9-.76-17.93-1.28-26.88-.07-1.19,0-3.31-1.51-3.27-1.67,0-1.17,2.12-1.22,3.32-1,24.11-2.09,48.22-2.93,72.33-.59,16.65-.77,33.31-1.31,50-.23,7.14-.79,14.28-1.45,21.39-.18,1.85.39,4-1.09,5.61a43,43,0,0,1-1-5.79q-1.61-47.16-3.08-94.34c-.37-12-.52-23.94-1-35.91q-.86-23.44-2.08-46.88c-.1-2.07,1.31-5.66-1.5-5.86-2-.14-1.39,3.66-1.47,5.66q-1.68,41.42-3.1,82.84c-.49,14.48-.66,29-1.22,43.45-.35,9.14-1.15,18.26-1.77,27.39a15.54,15.54,0,0,1-.37,1.9c-.89-.53-.45-1.4-.48-2.1-.64-12.59-1.38-25.17-1.8-37.77-.58-17.14-.77-34.29-1.43-51.43-.2-5.31-.33-10.59-.38-15.9-.09-10.14-.85-20.27-1.15-30.41-.49-16.63-.81-33.28-2.23-49.87-.11-1.28.69-3.58-1.33-3.56-1.36,0-.86,2.22-.94,3.47-.65,10.29-1.56,20.58-1.82,30.89-.8,31.61-1.54,63.22-3.09,94.81-.51,10.47-.8,21-1.21,31.44,0,1,.1,2.55-.84,2.59-1.4.07-.77-1.5-.8-2.32-.72-16.63-1.49-33.26-2-49.89-.64-19.95-1-39.9-1.65-59.85q-1.08-33.9-2.49-67.79c-.07-1.64.5-4.62-1.39-4.64s-1.42,2.91-1.65,4.64c-.13,1,0,2-.07,3q-.69,18.7-1.4,37.42c-.82,21.6-1.81,43.21-2.42,64.82-.42,14.8-.48,29.6-2.06,44.34-.1.94.16,2.61-.78,2.57-1.63-.06-1-1.81-1-2.83-.4-7.31-.77-14.61-1-21.92-.69-19.29-1.71-38.57-1.89-57.87-.24-25.65-1.57-51.25-2.29-76.88-.12-4.32-.59-8.63-.93-12.95-.08-.95.08-2.46-1.06-2.5-1.63-.06-1.2,1.64-1.39,2.68a30.43,30.43,0,0,0-.57,4.45c-1,28.44-2.19,56.87-3,85.32-.73,24.11-1.18,48.22-3,72.28a11.64,11.64,0,0,1-.47,1.87,13.86,13.86,0,0,1-.37-1.9c-.63-11.29-1.46-22.58-1.82-33.88-.86-27-1.5-53.92-2.23-80.88-.36-13.49-.4-27-1.25-40.45-.44-7.14-.29-14.32-1.17-21.43-.2-1.57.48-4.47-1.68-4.49-1.56,0-1,2.81-1.11,4.38-.63,10-1.45,19.93-1.71,29.9-.82,31.79-1.5,63.58-3.06,95.34-.57,11.63-.84,23.28-1.27,34.93,0,.75.25,2-.79,2s-.85-1.23-.88-2c-.13-3.5-.13-7-.26-10.5-1.22-33.26-2.81-66.51-3.53-99.78-.36-17-1.4-33.93-1.44-50.92,0-5-.57-10-.94-14.94-.08-1.11,0-2.83-1.32-2.88s-1.4,1.65-1.48,2.74c-.42,5.81-.91,11.62-1.11,17.44q-1.56,45.66-3,91.31c-.51,16.15-.88,32.3-1.45,48.44a66.51,66.51,0,0,1-1.33,8.35c-.38-2.95-1-5.9-1.11-8.87q-1-24.69-1.77-49.38c-.79-24.28-1.67-48.57-2.2-72.86-.35-15.81-1-31.6-2.11-47.37-.08-1,.36-2.86-1.21-2.77-1.42.08-.89,1.87-1,2.93-.32,2.47-.7,5-.79,7.44-1.06,28.28-2.2,56.55-3.06,84.84-.75,24.28-1.24,48.57-3,72.8a18,18,0,0,1-.48,2.36,19,19,0,0,1-.39-2.32c-1-21.61-2.51-43.21-2.77-64.82-.31-26-1.63-51.91-2.24-77.87-.26-11.3-1.12-22.6-1.74-33.89-.05-.94.08-2.41-1.17-2.39s-1,1.47-1.15,2.43c-.32,3-.76,5.95-.88,8.93-.74,19-1.49,37.92-2.08,56.88-.81,26-1.44,51.92-2.21,77.88-.23,7.65-.67,15.3-1.06,22.95,0,.62-.37,1.74-.59,1.74-1.29,0-.81-1.14-.86-1.78-.43-5.8-.92-11.61-1.12-17.42q-1.11-31.92-2-63.85c-.82-30.12-1.2-60.25-3.15-90.33-.16-2.57.63-5.41-1.87-7.4-1.07,2.26-1.09,4.7-1.22,7.13-1.22,22.11-1.46,44.26-2.37,66.37-1.27,30.78-1.49,61.59-3.65,92.33-.16,2.14-.24,4.29-.36,6.44-1.19-2.05-1.25-4.38-1.33-6.62-1.06-27.61-2.33-55.22-3-82.84-.67-28.79-1.29-57.58-3.17-86.32-.08-1.24.42-3.34-1-3.43-1.77-.11-1.11,2-1.2,3.16-2.6,30.52-2.7,61.16-3.77,91.75-.87,25.11-1.49,50.23-3.08,75.31a14.34,14.34,0,0,1-.38,1.91c-.9-.49-.51-1.37-.54-2.06-1-21.28-2.47-42.55-2.76-63.83-.38-27.81-1.92-55.57-2.39-83.37-.15-8.47-.87-16.94-1.51-25.41-.09-1.24.35-3.71-1.5-3.52-1.57.16-.9,2.53-1,3.93-.35,4.14-.73,8.29-.87,12.45q-1.57,45.17-3,90.34c-.46,14.48-.52,29-1.29,43.44-.36,6.81-.66,13.63-1,20.45,0,.89.23,2.07-1,2.57a13.93,13.93,0,0,1-.52-2.35c-.37-6-.78-12-1-17.94-.73-20.63-1.52-41.26-2-61.9-.76-29.95-1.32-59.91-3.15-89.83-.13-2.12,1.2-5.49-1.53-5.93-1.21-.2-1.41,4-1.5,6.27-.48,11.81-.87,23.62-1.3,35.43-.86,23.11-1.93,46.2-2.51,69.31-.45,17.8-.9,35.6-2.08,53.38-.17,2.52.3,5.12-.76,7.55a72.38,72.38,0,0,1-1.13-7.83c-1-25.6-2-51.2-2.75-76.81-.86-30-1.22-59.92-3.39-89.82-.1-1.32.67-3.59-1.27-3.64-1.33,0-.87,2.21-1,3.45-2.38,30.39-2.34,60.87-3.78,91.29-.8,16.8-.76,33.64-1.33,50.45-.31,9-1.11,17.94-1.73,26.9-.05.69.36,1.61-.61,2.05a17.83,17.83,0,0,1-.32-1.94c-2.4-34.72-2.4-69.53-3.9-104.28-.63-14.64-.38-29.33-1.36-43.94-.54-8.13.06-16.34-1.58-24.39-.2-1,.42-2.86-1.27-2.68-1.37.14-.9,1.91-1,3-.35,4.48-.76,9-.92,13.45q-1.57,45.42-3,90.84c-.47,14.65-.74,29.3-1.2,43.94-.22,7-.63,14-1,20.94,0,.88.4,2.45-.85,2.41-1.06,0-.72-1.61-.78-2.53-.35-5.48-.75-11-.95-16.45-.73-20.63-1.56-41.26-2.05-61.89-.72-29.79-1.4-59.57-3.14-89.32-.12-2.18,1.06-5.64-1.39-6.09-1.35-.24-1.47,3.95-1.57,6.14-1.1,26.61-2.38,53.21-3,79.84-.62,26.79-1.55,53.57-3,80.33-.14,2.55.41,5.18-.65,7.65a67.1,67.1,0,0,1-1.17-8.3q-.5-22.21-1.55-44.41c-1.13-24.45-1.39-48.92-2.38-73.36-.64-15.8-.91-31.61-2.16-47.38-.08-1.05.39-2.84-1.1-2.87s-1,1.78-1.17,2.81c-1.77,9.22-1.2,18.61-1.62,27.89-1.47,32.1-2.33,64.22-3.14,96.34-.38,15.14-.9,30.26-1.94,45.37,0,.64.33,1.68-.83,1.94-.09-.65-.23-1.3-.26-2-.95-20.28-2.25-40.55-2.75-60.85-.61-25.3-1.09-50.6-2.22-75.89-.51-11.47-1.18-22.93-1.84-34.39,0-.81.23-2.3-1.31-2-.4.06-.81,1.34-.87,2.1-.4,4.8-.85,9.62-1,14.44-1,30.11-2.28,60.22-3,90.34q-.74,32.46-2.28,64.89c0,1,.59,2.88-.94,2.83-1.15-.05-.7-1.95-.75-3-.67-13.47-1.46-26.93-1.89-40.4-.83-26-1.36-51.92-2.18-77.88-.53-16.63-1.34-33.26-2.08-49.89-.05-1.22.4-3.32-1.15-3.39s-1.19,2.1-1.3,3.25c-.93,9.77-1.41,19.57-1.68,29.4-.8,28.95-2.14,57.89-2.84,86.84-.44,18.13-1.21,36.25-2.13,54.35a16.34,16.34,0,0,1-.43,2.28,12.88,12.88,0,0,1-.6-2.31c-.58-8.46-1.33-16.92-1.62-25.4-1.1-32.27-2.16-64.55-3-96.84-.42-16-.79-31.95-2.14-47.88-.09-1,.43-2.85-1.12-2.83s-1,1.81-1.1,2.86c-.64,9.3-1.51,18.59-1.76,27.9-.84,32.28-1.69,64.56-3,96.84-.61,15.47-.78,30.95-2,46.39a13.78,13.78,0,0,1-.6,2.31,16.51,16.51,0,0,1-.44-2.29c-1-19.62-2.28-39.22-2.74-58.85q-.9-38.44-2.15-76.89c-.38-11.32-.57-22.63-1.87-33.89-.11-.89.11-2.38-1.15-2.34s-1.06,1.5-1.13,2.43c-.36,4.65-.79,9.29-.95,13.95q-1.58,45.42-3,90.84c-.54,17.31-.84,34.63-1.34,51.94-.15,5.15-.59,10.3-.94,15.45-.06.74.18,2-.87,2s-.7-1.3-.75-2.06c-.36-6.48-.78-13-1-19.45-.69-18.29-1.63-36.59-1.88-54.89-.4-30.14-1.66-60.24-3.21-90.34-.14-2.62,1.17-5.63-1.44-7.84-1.38,2.56-1.52,5.41-1.63,8.18-1,25.78-2.26,51.55-2.88,77.33-.74,30.47-1.59,60.92-3.23,91.35,0,.79-.2,1.58-.3,2.38-.91-.53-.56-1.46-.64-2.21-2-19.4-1.95-38.9-2.63-58.35-.66-18.8-1.11-37.62-1.76-56.42-.64-18.63-.84-37.28-2.44-55.87-.09-1.07.51-2.84-.9-2.95s-1.2,1.7-1.29,2.76c-.37,4.64-.76,9.29-.95,13.94-.57,14-1.13,27.92-1.42,41.89-.48,23.93-1.75,47.85-2.43,71.79-.45,15.8-.79,31.6-2.07,47.37a17.84,17.84,0,0,1-.36,1.91c-1-.41-.53-1.31-.57-2-.67-12-1.52-23.92-1.9-35.89-1.15-36.11-2.06-72.23-3.21-108.34-.28-8.65-1.12-17.27-1.74-25.9,0-.76-.09-1.91-1.13-1.88s-1,1.19-1,2c-.38,5.81-1,11.63-1,17.44-.18,17.65-1.23,35.27-1.49,52.93-.35,24.29-1.68,48.56-2.59,72.84-.39,10.32-.78,20.63-1.23,30.94,0,.84.46,2.18-1.06,2.28a5.89,5.89,0,0,1-.54-2.23c-.38-8.15-.78-16.29-1-24.44-.55-16.63-.94-33.27-1.56-49.9-1.11-29.27-1.19-58.58-3.45-87.8-.21-2.77,1.37-5.93-1.37-8.3-1.55,2.69-1.6,5.71-1.71,8.65-1.4,37.57-3,75.15-4,112.74-.49,18.62-1.06,37.23-2.14,55.83a13.54,13.54,0,0,1-.5,2.14,11.68,11.68,0,0,1-.68-2.31c-.52-7.47-1.2-14.93-1.45-22.41-1.09-31.94-2.16-63.89-3-95.84-.42-16.14-.81-32.28-2.14-48.38-.1-1.21.42-3.22-1.35-3.22-1.36,0-.8,1.89-.87,2.94-.64,9.3-1.46,18.59-1.76,27.91-1.15,36.26-2.07,72.53-3.22,108.79-.4,12.8-1.21,25.59-1.87,38.39,0,.73.27,1.64-.64,2.15a16.34,16.34,0,0,1-.32-1.94c-.65-11.8-1.51-23.59-1.89-35.39-1.15-35.95-2.08-71.91-3.18-107.86-.25-8.14-.79-16.28-1.33-24.41-.06-.93,0-2.74-1.65-2.5-1.08.15-.92,1.61-1,2.57-.36,5-.82,10-1,14.94q-1.56,45.41-3,90.8c-.51,16.65-.81,33.3-1.32,49.94-.18,6-.65,12-1.07,17.95a11.63,11.63,0,0,1-.85,2.73c-1.09-.64-.67-1.73-.69-2.62-.12-5.66-.66-11.3-.88-16.94-1.22-31.61-2.3-63.22-3-94.84q-.62-26-2.15-51.88c-.07-1.06.42-2.82-1-3-1.62-.17-1.23,1.69-1.37,2.69-.38,2.8-.66,5.62-.77,8.44q-.85,21.19-1.59,42.38c-.8,23.29-1.75,46.58-2.27,69.88-.41,18.48-.94,36.95-2.22,55.39a10.79,10.79,0,0,1-.4,1.75,6.51,6.51,0,0,1-.69-1.74c-.54-7-1.25-13.94-1.48-20.92Q679.34,321.6,677.88,269c-.37-13.14-.67-26.28-2-39.37-.09-.86.31-2.31-1.18-2.24-.9,0-.94,1.21-1,2s-.17,1.66-.21,2.49c-.91,18.94-2,37.86-2.67,56.8-.89,26.59-1.36,53.2-2.09,79.8-.31,11.15-.82,22.29-1.32,33.44,0,1.07-.07,2.33-1.15,3.1-.16-.95-.39-1.9-.48-2.87-1.83-20.22-1.86-40.52-2.72-60.78-1.13-26.76-1.55-53.55-2.35-80.33-.17-5.47-.62-10.95-1-16.42-.11-1.43,0-3.85-1.44-3.86-1.66,0-1.36,2.36-1.42,3.76-1.31,33.27-2.67,66.54-3.82,99.81-.67,19.46-.94,38.94-1.47,58.41-.15,5.49-.57,11-.9,16.45,0,.74.27,2-.8,2s-.78-1.27-.83-2c-.33-4.65-.74-9.29-.9-13.95-1.07-31.44-2.35-62.87-3-94.32-.39-18-1.44-35.93-2.3-53.89-.05-1.19.47-3.2-1.33-3.18-1.08,0-.66,2-.87,3.08-1.57,8.22-1.32,16.59-1.66,24.87q-2,47.65-3,95.34c-.38,17.48-.87,34.95-1.87,52.4-.18,3.14-.51,6.26-.77,9.39-.45-3.27-1.17-6.53-1.3-9.82-1.08-27.61-2.37-55.22-2.94-82.84-.45-21.13-1.58-42.23-2.23-63.35-.11-3.31-.62-6.62-1-9.93-.07-.55-.51-1.39-.93-1.5-.9-.23-.93.7-1,1.31-.11.83-.1,1.67-.16,2.5-2.51,32.38-2.68,64.86-3.68,97.29-.86,27.79-1.82,55.57-3.28,83.34a15.86,15.86,0,0,1-.32,1.91,7.42,7.42,0,0,1-.5-1.67c-.36-4.81-.82-9.62-1-14.44q-1.33-38.44-2.55-76.89H611.1c0-11.48.19-23-.05-34.43-.25-11.65-.91-23.3-1.46-34.94-.06-1.44-.19-3.81-1.63-3.8-2,0-1.17,2.38-1.25,3.68-.72,12.95-1.51,25.91-1.91,38.87-.83,27-1.35,53.93-2.15,80.89-.54,17.95-1.35,35.9-2.08,53.84,0,.89.35,2.45-.93,2.39-1.07,0-.74-1.61-.8-2.52-.66-10.81-1-21.61-1.28-32.43-.5-20.42-1.95-40.82-2.4-61.24-.4-18.13-1-36.24-2.31-54.32-.15-2.15,1.11-5.86-1.27-6-1.67-.12-1.7,4.14-1.8,6.52-1,26.27-2.06,52.54-2.91,78.82-.91,27.77-1.59,55.56-2.41,83.34-.13,4.31-.48,8.62-.77,12.93-.05.74.14,2-.93,1.91s-.84-1.28-.88-2.06c-.35-6.65-.78-13.3-1-19.95-.57-19.6-1-39.21-1.58-58.81-.36-11.81-1-23.61-1.46-35.41-.41-10.32-.76-20.63-1.2-30.94a26.61,26.61,0,0,0-.66-4.43c-.16-.78-.5-1.78-1.56-1.44a2,2,0,0,0-1,1.54c-.16,3.32-.16,6.64-.28,10-1.15,31.77-2.6,63.53-3.41,95.31-.74,29.29-1.55,58.57-3.13,87.82a13.82,13.82,0,0,1-.36,1.9,6.13,6.13,0,0,1-.47-1.72c.07-4.34-.69-8.64-.86-12.94-1.18-29.93-2.08-59.86-3.17-89.8-.61-16.63-1.41-33.25-2.15-49.88,0-1.09.3-2.86-1.1-2.93s-1.27,1.69-1.35,2.79c-2.11,29.23-2.36,58.53-3.36,87.79-1.15,33.59-1.8,67.2-2.7,100.8-.15,5.49-.41,11-.72,16.47a5.53,5.53,0,0,1-.93,2.6c-1.49-.24-1.26-1.76-1.31-2.71-.26-4.3-.23-8.61-.4-12.92q-.93-23.4-1.94-46.8c0-1.06.45-2.84-1-2.92-1.63-.1-1.23,1.75-1.14,2.74.63,6.29-.19,12.63.35,18.87,1.28,14.62.47,29.28,1.31,43.93,1.07,18.74.64,37.57.94,56.37.11,6.82.41,13.64.69,20.46q.88,21.42,1.83,42.84c.06,1.44-.52,3.66,1.23,3.85,2.06.23,1.55-2,1.61-3.39.4-8.81.79-17.62,1.09-26.43,1.08-31.77,2-63.54,3.29-95.29.25-6.15.73-12.29.89-18.45,0-.79,0-2,.93-2.05,1.11,0,.75,1.23.79,1.94.36,7.15.76,14.29,1,21.45q.9,27.44,1.66,54.88c.78,26.61,1.67,53.21,2.24,79.83.26,12.32.75,24.61,1.71,36.89.09,1.18-.17,3.33,1.28,3.37,1.73.05,1.23-2,1.32-3.24,2.27-29.21,2.72-58.52,3.66-87.78.62-19.63,1.85-39.23,2.34-58.86,0-1-.54-2.3.75-3a16.32,16.32,0,0,1,.87,3.27c.68,13.62,1.43,27.25,1.88,40.88.36,11,.15,22,.5,33,.71,22.26,1.64,44.53,2.46,66.79.48,13.14.92,26.29,1.45,39.43.06,1.4-.11,3.72,1.61,3.68s1.33-2.37,1.39-3.75c.94-21.1,2.15-42.2,2.66-63.31.76-31.12,1.51-62.24,3.41-93.31a14.3,14.3,0,0,1,.37-1.91,9.1,9.1,0,0,1,.47,1.79c.65,11.47,1.48,22.92,1.84,34.4.6,19.29.81,38.59,1.35,57.88.49,17.46,1.14,34.92,1.84,52.37.57,14.13,1.3,28.26,2,42.38.06,1.23-.42,3.34,1.18,3.33s1.12-2.16,1.21-3.38c.61-8.94,1.31-17.88,1.63-26.84.79-22.79,1.36-45.6,2.09-68.39q.93-29.19,2-58.38c0-1-.52-2.77,1.12-2.77.93,0,.7,1.67.75,2.62.89,18.28,2,36.55,2.59,54.84,1,32.63,1.65,65.26,2.55,97.89.19,7,.79,13.95,1.27,20.93.07,1.11.13,2.82,1.4,2.87,1.56.05,1.22-1.7,1.31-2.77.34-4.14.73-8.28.88-12.43,1-28.45,2.27-56.89,2.85-85.35.42-21,1.5-41.93,2.31-62.89,0-.88-.46-2.43.82-2.41,1.07,0,.82,1.59.87,2.51.38,6.65.83,13.29,1,19.94q1.13,38.19,2.09,76.4c.13,4.65.06,9.31.22,14q.71,19.42,1.55,38.85.62,14.22,1.46,28.43c.07,1.19-.2,3.33,1.21,3.38s1.32-2.07,1.41-3.28c.47-6.47.91-13,1.14-19.43,1-27.79,1.79-55.57,2.77-83.36.7-19.77,1.56-39.53,2.36-59.3a11.43,11.43,0,0,1,.38-1.79,7.12,7.12,0,0,1,.56,1.73c.61,8.63,1.43,17.25,1.72,25.89q1.66,49.92,3,99.85c.46,17.64.8,35.28,2.13,52.88.1,1.36-.49,3.72,1.33,3.69,1.48,0,1.21-2.53,1.31-3.88.6-8.11,1.17-16.24,1.41-24.37,1.12-37.27,2.07-74.54,3.22-111.81.27-9,1.07-17.94,1.69-26.9,0-.69-.27-1.65.74-2.06a18.67,18.67,0,0,1,.32,1.94c.35,5.81.78,11.63,1,17.45.54,15.79,1,31.59,1.47,47.39.83,26.79,1.76,53.57,2.5,80.36.33,11.82.79,23.62,2,35.38.1,1-.45,2.77,1.21,2.72,1.06,0,.83-1.6.88-2.55.4-7.14.82-14.28,1.1-21.43q1-25.69,1.91-51.41,1.58-45.63,3.12-91.27c.05-1.55-.48-3.23.64-4.65,1.45,1.26.94,3.05,1.22,4.63a2.68,2.68,0,0,1,0,.49c1,23.78,2.3,47.55,2.73,71.33C679,843.1,680,875.55,681.7,908c.11,2.18-.81,4.72,1.46,6.45,1.34-2,1.44-4.39,1.54-6.65q.91-20.7,1.63-41.4c.81-22.46,1.88-44.91,2.27-67.38.3-17.82,1.12-35.6,2.19-53.38a18.83,18.83,0,0,1,.43-2.36,14.48,14.48,0,0,1,.46,2.23c1,18.59,2.14,37.18,2.81,55.79.9,25.44,1.42,50.9,2.1,76.35.36,13.81.67,27.62,2,41.39.17,1.87-.63,5.44,1,5.25,2.4-.27,1.73-3.84,1.82-5.89,1.21-30.61,2.6-61.22,3.21-91.84.45-22.48,1.87-44.92,2.41-67.39a38.36,38.36,0,0,1,1-5.83c1.24,1.71.42,3.67.69,5.5a64.76,64.76,0,0,1,.76,7c1,29.59,2.11,59.18,3,88.78.56,18.31.57,36.64,1.43,54.93.31,6.8.31,13.65,1.15,20.43.15,1.26-.22,3.57,1.63,3.49,1.29,0,1-2.2,1.07-3.48,1-23.78,2.07-47.56,2.9-71.36.88-25.11,1.51-50.23,2.3-75.35.19-5.81.61-11.62,1-17.43,0-.6.46-1.66.73-1.67,1.37-.06.82,1.15.85,1.81.69,13.63,1.54,27.25,1.92,40.89.63,23,1.37,45.93,1.94,68.9.49,20,1.44,39.93,2.29,59.89.08,1.77-.24,5,1,4.94,2.11-.12,1.73-3.11,1.81-4.86.59-12.3,1-24.62,1.44-36.93,1-29.45,1.82-58.9,2.86-88.35.48-13.47,1.3-26.93,2-40.4a10.87,10.87,0,0,1,.42-1.82,12,12,0,0,1,.63,1.76,22.91,22.91,0,0,1,.35,3c.79,18,1.75,35.91,2.3,53.88.88,28.12,1.38,56.25,2.24,84.37.34,11.14,1.22,22.27,1.9,33.4.07,1.05-.44,2.84,1,2.89s1.06-1.77,1.12-2.81c.56-9.46,1.17-18.92,1.52-28.38q1.29-34.44,2.37-68.88c.46-14.31.66-28.63,1.2-42.94.35-9.14,1.08-18.27,1.68-27.4a18.68,18.68,0,0,1,.61-2.82c.16.91.4,1.83.47,2.75,1.94,22.91,1.82,45.9,2.84,68.84,1.21,27.28,1.5,54.6,2.33,81.89.23,7.48.91,14.94,1.48,22.41.07.9.81,2.54,1.14,2.51,1.66-.12,1.2-1.68,1.28-2.73.41-6,.86-12,1.08-17.94.58-16,1-31.91,1.56-47.87q1.13-34.19,2.3-68.38c.37-11,.75-22,1.21-32.94,0-1-.65-2.88.88-2.83,1.21,0,.77,1.93.81,3,.21,5.66.67,11.31.89,17,1.23,31.28,2.35,62.56,3,93.86q.64,29.71,2.26,59.37c.06,1.24-.47,3.4,1,3.42,1.75,0,1.51-2.29,1.61-3.59.55-6.63,1-13.27,1.26-19.92,1.07-31.12,2.25-62.23,3-93.35q.64-27.72,2.22-55.4c0-.65.2-1.29.3-1.94,1,.44.54,1.34.61,2,2.06,17.88,1.84,35.89,2.67,53.84,1.19,25.77,1.44,51.58,2.28,77.37.44,13.64,1.28,27.26,2,40.89.05,1.09-.34,3,.9,3,1.88,0,1.21-2,1.28-3.14.67-10.46,1.47-20.91,1.83-31.39,1.12-32.44,2.18-64.89,3-97.34.34-13.48.8-27,1.79-40.4,0-.72-.15-1.67.83-2.08.12.62.29,1.23.35,1.86.29,3.14.71,6.29.82,9.44,1,29.61,2.12,59.23,3,88.84.56,18,.8,36,1.33,53.94.2,6.65.76,13.3,1.31,19.93.1,1.15-.14,3.3,1.41,3.22s1.1-2.15,1.16-3.4c.67-12.12,1.61-24.25,1.87-36.38.73-32.63,1.58-65.24,3.06-97.84.5-11,.79-22,1.22-33,0-1.08-.4-3,.75-3,1.61-.09.93,1.79,1,2.79.16,5.49.7,11,.9,16.44,1.19,31.94,2.11,63.9,3.09,95.84.45,14.65.8,29.3,1.29,43.94.15,4.49.58,9,1,13.45.07.75.5,2,.89,2.09,1.55.2,1.21-1.3,1.27-2.1.62-7.12,1.41-14.25,1.62-21.39.91-31.12,1.77-62.23,2.94-93.34.71-19,1-38,2.27-56.89.06-.81.26-1.6.4-2.4a14.7,14.7,0,0,1,.57,2.31c2.82,29.86,2.6,59.86,3.63,89.79.93,27,1.69,53.9,3.23,80.83.07,1.18-.59,3.3,1.12,3.28s1-2.13,1.06-3.33c1-18.28,2.1-36.56,2.75-54.85q1.37-38.43,2.09-76.89c.25-13,1-25.94,1.81-38.9a11.18,11.18,0,0,1,.64-2.29c.9.54.48,1.45.52,2.18.66,11,1.58,21.92,1.84,32.89.77,32.95,1.58,65.9,3.06,98.83.57,12.8.93,25.62,1.5,38.43.06,1.37,0,3.87,1.39,3.85,1.8,0,1.22-2.37,1.28-3.75.24-5.49.68-11,.9-16.45,1.22-30.77,2.14-61.55,3.12-92.34.44-14.14.72-28.29,1.18-42.44.19-6,.64-12,1-17.94,0-.61.34-1.69.6-1.72,1.3-.1,1,1.08,1,1.78.21,5.49.68,11,.89,16.45,1.22,31.44,2.31,62.88,3.05,94.33.46,19.48,1.17,38.94,2.27,58.39.06,1.08-.37,2.83,1.09,2.92s1.28-1.76,1.36-2.76c.56-6.8,1.21-13.6,1.41-20.41.91-31,1.74-61.9,2.91-92.85.74-19.29,1-38.61,2.29-57.88.06-.81.24-1.61.36-2.42a10.52,10.52,0,0,1,.6,2.21c.93,16.61,2.08,33.21,2.68,49.84.92,26,1.57,51.92,2.13,77.89.3,13.81.9,27.6,2,41.37.09,1.09-.32,3,.94,3,1.85,0,1.18-2,1.26-3.16.68-10.29,1.49-20.58,1.83-30.89,1.12-33.28,2.2-66.56,3-99.84.32-13.82.93-27.62,2-41.4,0-.69-.35-1.72.78-2.09.09.66.24,1.31.28,2,.62,10.63,1.55,21.26,1.79,31.9q1.11,49.18,3,98.34c.5,13.31.62,26.63,1.79,39.91.11,1.21-.42,3.49,1,3.42,1.66-.07,1.25-2.4,1.35-3.77.4-5.64.75-11.3,1-16.94,1.26-32.11,2.14-64.23,3.21-96.34q.94-27.95,2.13-55.87c0-1.11-.38-3.06,1.13-3.14.81,0,.53,2,.58,3.15.67,14.3,1.51,28.59,1.94,42.89.85,28,1.38,55.94,2.23,83.9.39,12.64,1.24,25.26,1.92,37.89,0,1.06-.3,2.87,1.15,2.85s.89-1.85,1-2.89c2.25-16.37,2-32.89,2.6-49.34.88-24.77,1.25-49.57,2.26-74.35q1-24.69,2.07-49.39c0-.66-.44-1.56.57-2a14.06,14.06,0,0,1,.39,1.91c.91,16.28,2.19,32.55,2.61,48.84.63,24.63,1.28,49.26,2.09,73.89.49,15,.8,29.95,2.12,44.89.11,1.24-.43,3.34,1.09,3.39,1.72.06,1.06-2,1.13-3.21.66-10.46,1.45-20.91,1.81-31.38q1.7-50.17,3.08-100.36c.41-14.14.61-28.28,2-42.37a10,10,0,0,1,.54-1.8,15.82,15.82,0,0,1,.36,1.92c2.25,34.55,2.65,69.17,3.85,103.76.72,20.79,1.61,41.57,2.35,62.35.07,1.8.14,5,1.36,4.87,1.91-.13,1.27-2.95,1.54-4.66a29.77,29.77,0,0,0,.09-3c.63-11.47.77-23,1.4-34.4,1.3-23.61,1.65-47.24,2.32-70.86.61-21.3,1.7-42.58,2.37-63.87,0-.83-.53-2.15,1-2.31a4.94,4.94,0,0,1,.67,2.16c.37,6,.78,12,1,17.95.73,20.46,1.46,40.92,2,61.39.83,29.29,1.4,58.58,3.09,87.84.07,1.28-.37,3.59.64,3.62,1.9.05,1.44-2.17,1.62-3.53,2.28-17.36,1.88-34.88,2.63-52.33,1.24-28.78,1.37-57.61,2.52-86.4.37-9.15.35-18.31,1-27.44.1-1.31-.06-3.61,1.68-3.53,1.29.05.79,2.24.83,3.49.49,14.8.9,29.61,1.4,44.41.79,23.11,1.75,46.22,2.41,69.33.43,14.8.93,29.6,2.13,44.36.07.91-.14,2.37,1.15,2.34s1-1.52,1-2.42c.67-10.79,1.55-21.58,1.89-32.39,1.16-37.11,2.08-74.23,3.2-111.34.32-10.64,1-21.27,1.58-31.9a10.42,10.42,0,0,1,.66-2.33c1,.46.53,1.37.56,2,1,22.45,2.1,44.9,2.88,67.35.89,25.46,1.45,50.93,2.24,76.39.2,6.66.67,13.3,1.14,19.94.09,1.37,0,3.63,1.7,3.63s1.08-2.12,1.13-3.35c1.36-36.26,3.1-72.52,3.86-108.8.47-22.3,2.1-44.55,2.37-66.84,0-.62.3-1.76.5-1.76,1.21-.05,1,1,1,1.77.36,5.14.79,10.29,1,15.44.74,21,1.65,41.9,2,62.86.53,28.62,1.36,57.23,3.2,85.8.11,1.71-.76,4.67,1.16,4.77,1.76.08,1-3,1.4-4.66a21.44,21.44,0,0,0,.41-4.47c1-27.45,2.37-54.89,2.93-82.35q.84-41.93,3.13-83.78c.08-1.66-.41-3.45.74-5a12.08,12.08,0,0,1,1.08,5.3c.68,17,1.47,33.92,2,50.89.8,25,1.32,49.94,2.14,74.9.37,11.13,1.16,22.25,1.82,33.37.06,1.07-.24,3,1.09,2.92,1.8,0,1.15-2.07,1.23-3.21.4-6,.73-12,.94-17.94.49-13.8.89-27.61,1.34-41.42q1.22-37.17,2.46-74.35c.48-13.8,1.1-27.6,1.7-41.4A9,9,0,0,1,1058,712c1.1.41.62,1.38.67,2.09.37,5.14.77,10.28,1,15.44.53,14.79.93,29.6,1.44,44.4q1.25,35.67,2.57,71.32.54,14.48,1.39,28.93c.06,1.07-.12,3.12,1.55,3,1.15-.06,1.08-1.86,1.1-3,.11-5.66.71-11.3.92-16.94,1.2-32.11,2.05-64.23,3.08-96.34q1-32.19,2.27-64.38c0-1.06-.32-3,.82-3s.81,1.87.85,2.94c1,24.12,2.37,48.22,2.83,72.35C1079,798,1080,827,1081.69,856.1c.08,1.3-.71,3.64,1.35,3.53,1.46-.08,1.26-2.4,1.31-3.88.24-7.64.17-15.3.78-22.91,1.8-22.58,1.73-45.23,2.44-67.84.94-30,1.51-59.91,3.25-89.82,0-.66.19-1.31.29-2,.83.35.5,1.11.58,1.71.28,2.31.69,4.62.77,6.94,1.42,40.74,2.73,81.48,4.21,122.21.42,11.3,1.3,22.59,2,33.88.06.94-.18,2.41,1,2.47,1.38.08,1-1.46,1.07-2.32.4-5.48.87-11,1-16.44.47-14.8.73-29.6,1.22-44.4.83-25.1,1.94-50.19,2.59-75.3.44-16.64.86-33.28,2.17-49.88a13.5,13.5,0,0,1,.41-1.84,9.76,9.76,0,0,1,.41,1.72c.38,7.81.78,15.63,1.09,23.44.95,23.27,1.95,46.54,2.76,69.81.57,16.13.82,32.27,1.3,48.4.18,5.81.62,11.61,1,17.41.06,1,0,2.36,1.18,2.47,1.66.17,1.56-1.5,1.63-2.52.44-6.14.91-12.29,1.11-18.44q1.59-49.17,3.06-98.35c.49-16.47.79-33,1.27-49.42.15-5,.62-10,1-14.94.06-.79-.16-2,.79-2.11,1.12-.08.85,1.15.83,1.89-.17,4.84.78,9.62,1,14.43,1.15,30.76,2.07,61.53,3.18,92.3.49,13.63,1.24,27.26,1.94,40.89.06,1.18-.46,3.18,1.39,3.17,1.14,0,1-1.92,1.14-3,.76-8.29.43-16.63,1-24.89,1.6-24.94,1.64-49.91,2.66-74.85.34-8.47-.16-17,.39-25.44,1.34-20.57.66-41.22,2.62-61.76.22-2.25-.67-4.61.67-6.74,1.79,2.07.38,4.44.6,6.66,2.69,27.36,2.19,54.86,3.52,82.29.88,18.12,1.4,36.26,2.14,54.39,0,1.35-.39,3.66,1.61,3.55,1.77-.09,1.45-2.36,1.5-3.78,1-24.43,2-48.86,2.84-73.3.52-14.48.2-29,.88-43.45,1.21-25.43,1-50.94,2.47-76.35.38-6.27-1.78-13.19.59-19.35a4.77,4.77,0,0,1-.11-1v-.29a4.55,4.55,0,0,1,0-.53c0-.15,0-.3,0-.44V512a3.45,3.45,0,0,1,.08-.72,4.53,4.53,0,0,1-.08-.74v-.87a4.62,4.62,0,0,1,.18-1.19v-.09a6,6,0,0,1,.13-1.63A4.83,4.83,0,0,1,1157.69,505.7ZM787.27,585.93c-.32,5.82-.39,11.64-.6,17.46-.75,20.61-1.43,41.23-2.15,61.84a8.26,8.26,0,0,1-.21,2c-.25.91-.65,1.79-1,2.68-1-.7-.55-1.75-.66-2.66-1.33-11.09.35-22,1.33-33,.75-8.61,1.36-17.24,1.65-25.88.55-16.47.82-33,1.21-49.44,0-1.63,0-3.28.83-4.76C787.6,564.72,787.85,575.35,787.27,585.93Zm133.35-13.51c-.64,22.79-1.44,45.59-2,68.39-.31,14.31-.76,28.6-2,42.87-.06.65.38,1.55-.59,2-.08-.66-.19-1.31-.24-2-2.17-27.56-2.18-55.19-3.27-82.79-.77-19.61-.81-39.25-2.43-58.83-.46-5.45-.27-11-1-16.41-.13-.94.12-2.4-1.12-2.35s-1,1.58-1,2.48c-.49,6.29-1,12.59-1.28,18.89-.47,12.15-.75,24.29-1.09,36.44-.67,23.79-1.21,47.58-2,71.36-.62,18.26-1.6,36.52-2.44,54.78,0,.74.45,2-.61,2-.91,0-.64-1.36-.67-2.13-.83-22-1.69-43.91-2.3-65.88-.91-33.26-2.5-66.5-3.85-99.75-.05-1.17.46-3.36-1.24-3.18s-1.36,2.4-1.44,3.85q-1.78,34.92-2.56,69.88c-.71,31.45-2,62.89-3.19,94.33-.08,2.26.26,4.91-1.52,6.93-1.71-2.2-.84-4.76-.94-7.15-.9-22.28-1.84-44.56-2.57-66.85-.65-20.12-1-40.26-1.62-60.39-.32-9.64-1.09-19.26-1.73-28.89-.08-1.19.56-3.31-1.07-3.34s-1.1,2.09-1.2,3.29c-1.35,16.6-1.56,33.25-2.19,49.89q-1.83,48.66-3,97.34c-.2,8.47-1.11,16.93-1.73,25.39-.05.72.34,1.61-.56,2.13a14.5,14.5,0,0,1-.35-1.93c-.63-10-1.5-19.92-1.8-29.9-.61-19.64-.74-39.3-1.37-58.94-.83-25.45-1.92-50.89-3-76.33-.11-2.73,0-5.59-1.67-8-2.36,2.32-1.17,5.29-1.31,7.94q-2.37,44.64-3.23,89.34c-.49,25-1.86,49.91-2.87,74.86-.05,1.23.52,3.43-.78,3.46-1.48,0-.89-2.12-.94-3.31-.91-22.29-1.85-44.58-2.29-66.89-.57-29-1.83-57.9-2.89-86.85-.21-5.81-.82-11.61-1.32-17.42-.06-.72-.13-1.79-1.21-1.76-.23,0-.56,1.11-.62,1.73-.59,6.46-1.4,12.92-1.63,19.4-.59,16.14-.84,32.29-1.35,48.44q-1.42,45.66-3,91.34a74.52,74.52,0,0,1-.81,7.44c-.25,1.81.59,3.76-.74,5.41a42.45,42.45,0,0,1-1-5.84c-.5-13.81-.75-27.64-1.35-41.44-1.43-32.94-2.24-65.89-3-98.84-.23-9.48-1.11-18.94-1.78-28.4-.09-1.32.65-3.59-1.26-3.65-1.34,0-.88,2.19-1,3.44-1.17,13.27-1.6,26.57-2,39.88-1.14,35.76-2.52,71.51-3.81,107.27-.19,5.32-.35,10.64-.54,16,0,.76.22,2-.8,1.94s-.6-1.36-.63-2.13c-.7-15.63-1.51-31.26-2-46.89-.82-26.13-1.35-52.26-2.16-78.38-.44-14.47-1.2-28.92-1.83-43.38a25.15,25.15,0,0,0-.32-3.48c-.26-1.35.35-3.62-1.64-3.57-1.5,0-1.11,2.16-1.16,3.42-.7,15.62-1.49,31.24-2,46.87-.81,25.3-1.35,50.6-2.17,75.9-.42,13-1.2,25.93-1.87,38.89,0,1,.47,2.95-.83,2.93s-.73-2-.77-3q-1.21-32.19-2.28-64.37c-1-32.78-1.91-65.56-3.15-98.33-.21-5.64-.58-11.3-.86-17-.07-1.45.19-3.8-1.3-3.89-1.9-.11-1.39,2.32-1.46,3.59-.55,8.81-.91,17.63-1.35,26.44-.12,2.42.5,4.94-.88,7.21-.35-18.27.31-36.52,1-54.77q1-25.45,2-50.9a18.49,18.49,0,0,1,.28-2c1.12.25.85,1.29.9,1.93.58,7.63,1.28,15.25,1.54,22.89.53,15.31.7,30.63,1.19,45.94q1,32.7,2.35,65.37c.29,7.81.76,15.6,1.27,23.4.09,1.38-.32,3.86,1.15,3.93,1.95.09,1.29-2.31,1.37-3.65.68-11.11,1.45-22.21,1.82-33.33.57-16.81.69-33.63,1.26-50.44,1-29.62,2.2-59.23,3.3-88.84,0-1.31-.22-2.69,1-3.68a22.38,22.38,0,0,1,.83,3.81q.9,22.2,1.67,44.42,2,56.15,4,112.28a8.26,8.26,0,0,0,.06,1c.25,1.57-.13,4.21,1.66,4.14,2-.09,1.19-2.71,1.28-4.24,1.86-30.41,2.37-60.88,3.18-91.34.71-26.61,1.92-53.22,3-79.82.05-1.16-.69-3.15,1-3.28,1-.07.68,2,.72,3,.73,19.8,1.29,39.6,2.15,59.39,1,23.63,1.59,47.26,2.11,70.9.26,12,1.19,23.93,1.88,35.89.07,1.2-.5,3.21,1.25,3.27,1.18,0,.91-1.91,1-3,.61-8,1.39-15.92,1.65-23.9.59-18.63.79-37.27,1.37-55.9.88-27.95,1.94-55.9,3-83.85.06-1.49.34-3,.49-4.46.24-2.31.46-4.61.69-6.92.47,2.52,1.28,5,1.35,7.55.68,23.29,1.75,46.56,2.4,69.85.86,31.11,1.38,62.24,3.7,93.29.1,1.26-.42,3.47.91,3.5,2,.06,1.32-2.22,1.4-3.52.66-10.63,1.39-21.26,1.78-31.91.54-14.81.77-29.63,1.19-44.44q1-36.19,2.14-72.38c.22-7,.79-13.95,1.26-20.91A9,9,0,0,1,858,410c1,.51.53,1.43.57,2.17,1.25,18.77,1.77,37.57,2.23,56.39.78,31.45,1.91,62.89,3,94.34.24,7,.85,13.95,1.42,20.91.08,1-.09,2.83,1.38,2.76s1.06-1.84,1.1-2.9c.71-18.63,1.72-37.25,2.31-55.89.76-24.11.89-48.25,2.46-72.35.79-12.12.86-24.28,1.36-36.42.06-1.48-.9-3.89,1-4.2,1-.15.66,2.57.71,4,.83,22.13,1.69,44.25,2.38,66.38.67,21.28,1,42.57,1.75,63.85.44,13.46,1.25,26.92,1.93,40.38.06,1.08-.38,2.79,1.05,2.95s1.46-1.67,1.54-2.65c.57-7,1.19-13.91,1.41-20.88.82-26.62,1.35-53.24,2.27-79.85.72-20.95,1.83-41.89,2.8-62.83,0-.68-.38-1.62.66-2,.18.62.41,1.24.53,1.87a26.78,26.78,0,0,1,.59,3.94c.77,24.3,1.24,48.61,2.3,72.9,1.41,32.26,1.17,64.59,3.78,96.8,0,.67,0,1.34.13,2s.14,1.91,1.2,1.87.88-1.2.94-1.95c.5-7.46,1.15-14.92,1.43-22.39.9-24.62,1.66-49.23,2.48-73.85q1-31.2,2.08-62.39a17.35,17.35,0,0,1,.24-2.49c.17-.94-.14-2.61.81-2.61,1.19,0,.71,1.59.74,2.48.72,17.62,1.16,35.27,2.14,52.88,1,17.45.23,34.94,1.7,52.38.56,6.62,0,13.31.24,20,.59,17.3,1.32,34.6,2,51.89a2.74,2.74,0,0,0,0,.5c.53,2.21.36,6.4,1.76,6.2,2.7-.4,1.22-3.86,1.33-5.94.79-15.29,1.37-30.59,2-45.89,0-.65.17-1.3.26-1.94C921,570.88,920.64,571.75,920.62,572.42Z"/><path d="M1170.16,190c.51-18,.92-36,1.54-53.93.37-10.47,1-20.94,1.68-31.4.08-1.37-.34-4,1.08-3.9,2,.13,1.25,2.66,1.37,4.19,1.43,17.6,1.67,35.25,2.18,52.89,1.11,37.44,2.54,74.87,3.9,112.31.09,2.62.67,5.22,1,7.83,1.42-2.41.61-5.06.79-7.59,2-29.09,2.47-58.22,3.15-87.35.56-24.12,1.86-48.23,2.86-72.34.06-1.45-.16-3.9,1.25-3.89,2,0,1.56,2.53,1.66,4q1.86,29.85,2.31,59.77c.38,25.8,1.24,51.59,2.07,77.38.37,11.31,1.15,22.61,1.8,33.9.06,1-.52,2.92.69,3s.92-1.84,1-2.93q1.54-31.68,2.32-63.4c.56-22.77,1.78-45.52,2.56-68.29.3-9,0-18,1.22-26.91.19-1.39-.61-3.81,1.11-3.86,2,0,1.68,2.58,1.75,4q.87,18.69,1.42,37.41c.76,26.3,1.27,52.6,2.17,78.89.7,20.12,1.84,40.22,2.8,60.32a25.43,25.43,0,0,0,.44,2.73,11.17,11.17,0,0,0,.87-2.76c.55-12.14,1.12-24.28,1.51-36.42,1.09-33.78,2.06-67.56,3.16-101.34.21-6.49.73-13,1.25-19.44.1-1.18,0-3.4,1.46-3.24,1.82.21,1.17,2.42,1.24,3.8,1,20,1.82,39.9,2.24,59.88.76,35.61,2.16,71.22,3.39,106.82.35,10.28-.18,20.6,1.37,30.84.19,1.26.77,3.55-1.23,3.57-1.41,0-.88-2.19-.93-3.43-1.12-30.1-2.65-60.18-3.11-90.3-.16-10.8-1.14-21.6-1.76-32.39,0-.94.24-2.57-.77-2.56-1.63,0-1.06,1.76-1.12,2.8-1.35,21.27-1.81,42.57-2.29,63.88-.71,31.46-1.91,62.91-3,94.35-.18,5.49-.72,11-1.19,16.43-.08.89-.21,2.32-1.44,2.25s-1.11-1.49-1.18-2.42c-.38-5.48-.84-11-1-16.44-.77-25.63-1.32-51.27-2.21-76.9-.79-22.78-1.92-45.55-2.92-68.33a15.16,15.16,0,0,0-.44-2.29,8.54,8.54,0,0,0-.76,2.25c-.6,12.13-1.29,24.25-1.65,36.39-.8,26.12-1.36,52.25-2.14,78.37-.51,16.94-1.22,33.89-1.9,50.83-.16,3.82-.5,7.63-.88,11.44-.12,1.16.49,3.18-1.34,3.15-1.23,0-.88-1.9-1-3-.67-11.63-1.52-23.25-1.91-34.88-.84-25.44-1-50.91-2.29-76.33-.91-18.26-.53-36.59-2.65-54.8-.09-.79-.29-1.58-.44-2.37a13.78,13.78,0,0,0-.48,2.24c-1,17.62-1.83,35.25-2.19,52.9-.46,23-1.49,45.92-2.27,68.88-.5,14.46-1,28.93-1.53,43.39-.13,3.15-.58,6.29-.92,9.43-.1.95,0,2.48-1.05,2.49-1.78,0-1.09-1.72-1.15-2.72q-1.54-24.93-2.17-49.89-1.17-48.91-3.09-97.81c-.26-6.81-.74-13.62-.88-20.45,0-.75.16-2-.87-2s-.79,1.25-.82,2q-.61,15.71-1.17,31.42c-1.18,32.94-2.51,65.87-3.1,98.83-.24,13.31-1.21,26.6-1.9,39.9-.09,1.58.23,4.4-1.3,4.36-2.26-.07-1.5-2.87-1.58-4.5q-1.62-33.92-2.4-67.88c-.64-29.77-1.91-59.53-3-89.29-.13-3.82-.54-7.63-.85-11.45,0-.65-.21-1.29-.32-1.94-1,.42-.77,1.41-.81,2.12-.58,8.8-1.31,17.59-1.58,26.4-.84,27.78-1.12,55.59-2.35,83.35-.87,19.62-.62,39.29-2.65,58.85-.13,1.31.6,3.59-1.34,3.62-1.37,0-.93-2.2-1-3.44-1.36-16.1-1.49-32.25-2.11-48.38-1.24-32.28-2-64.57-3.12-96.84-.3-8.78.13-17.67-1.56-26.4-.14-.75-.38-1.49-.58-2.23-.1.65-.25,1.29-.29,1.94-2,29.08-2.61,58.2-3.27,87.32-.58,25.79-1.88,51.56-3,77.34-.1,2.37,0,6.59-1.8,6.52-2.29-.08-1.06-3.87-1.25-6-1.45-16.42-1.67-32.89-2.06-49.36-.79-32.62-1.9-65.22-3-97.83-.26-8.13-.92-16.26-1.42-24.39a9,9,0,0,0-.52-1.83c-1.13.36-.67,1.33-.7,2-.79,20.79-1.88,41.57-2.32,62.39-.64,30-1.88,59.91-2.92,89.86-.15,4.49-.55,9-.93,13.44-.08,1.08.43,2.87-.93,3-1.75.19-1.71-1.83-1.78-2.95-.55-9.3-1.07-18.61-1.4-27.92-1-27.44-2.06-54.87-2.69-82.32-.47-20.45-1.32-40.87-2.29-61.29a28.86,28.86,0,0,0-.53-3.29c-1.56.64-.71,2-.82,3-1.84,16.41-1.6,32.91-2.31,49.37-1.16,26.94-1.24,53.93-2.47,80.87-.41,8.94,0,18-1.67,26.89-.21,1.12-.07,2.87-1.38,2.83-1.7-.06-.72-1.83-.85-2.82-1.49-11.25-1.42-22.59-1.8-33.89-1-28.78-1.14-57.59-2.37-86.36-.82-19.12-.47-38.29-2.55-57.35-.29-2.66,1-5.3,0-7.94-.21-.59-.45-1.66-.7-1.67-.9,0-.67.87-.74,1.47-.2,1.65-.51,3.3-.56,5-.7,23.11-1.08,46.24-2.17,69.33-.57,12.11-1.13,24.2-1,36.33,0,1.23.31,3.38-1.13,3.35-1.61,0-.94-2.13-.91-3.3.57-19.27,1.3-38.53,1.79-57.81.54-21.12.75-42.25,1.34-63.37.42-15.47,1.22-30.92,1.87-46.37a8.05,8.05,0,0,1,.37-2.46c.37-1,0-2.74,1.71-2.53,1.16.14.88,1.59,1,2.52,1.39,8.42.9,16.94,1.26,25.41q1.28,29.91,2.33,59.83c.26,7.3.2,14.62.48,21.93q.75,19.41,1.8,38.82c.06,1.11-.49,3.18,1.16,3.23,1,0,.7-2,.74-3.05q1.1-30.43,2.11-60.86,1.61-48.91,3.16-97.85c.13-4.16.52-8.3.87-12.45.11-1.24-.39-3.4,1.06-3.42,1.72,0,1.56,2.31,1.64,3.59.58,9,1.1,17.93,1.38,26.91.79,25.28,1.39,50.57,2.19,75.84.54,17.3,1.28,34.6,1.93,51.9a27.58,27.58,0,0,0,1.37,8.2,24.11,24.11,0,0,0,1.27-8.29c.47-24.81,1.89-49.58,2.29-74.4.36-22.95,1.37-45.9,2.17-68.85.32-9.26.34-18.64,2.2-27.82.15-.77.32-1.53.49-2.3,1.19.51.91,1.63,1,2.52.72,12.12,1.56,24.24,2,36.37.56,14.48.7,29,1.17,43.45q1.43,43.16,3.06,86.32a51.72,51.72,0,0,0,1.13,6.81c1.23-2.08.51-4.37.65-6.56,1.13-17.11,1.56-34.25,2.07-51.39,1.14-37.77,2.61-75.53,4-113.29.08-2.17-.12-6.18,1.52-6,2.26.28,1.35,3.93,1.48,6.15,1.81,31.92,2.6,63.87,3.27,95.84.48,22.79,1.81,45.57,2.8,68.35.05,1.06-.52,3,.63,3,1.37.06,1-1.82,1-2.88q.69-17.73,1.27-35.45c1-32.95,1.94-65.9,3-98.85.4-11.63,1.22-23.26,1.89-34.89.07-1.23-.51-3.27,1.11-3.39s1.37,2,1.46,3.17c.56,7,1.13,13.94,1.34,20.93.55,18,.56,36,1.42,53.93,1.51,31.75,1.44,63.57,3.8,95.28,0,.65-.45,1.56.57,2a11.77,11.77,0,0,0,.39-1.91c.65-13.13,1.55-26.25,1.84-39.39.32-14.47.08-28.94.08-43.42Z"/><polyline points="1157.97 500.06 1158.25 499.44 1158.53 496.86 1157.72 507.35 1157.61 514.37 1157.5 510.56 1157.5 509.69"/></svg>